<svg xmlns="http://www.w3.org/2000/svg" width="160" height="160" viewBox="0 0 160 160"><defs><clipPath id="c"><circle cx="80" cy="80" r="76"/></clipPath></defs><circle cx="80" cy="80" r="76" fill="#efe3cc" stroke="#1d3b3a" stroke-width="4" stroke-linejoin="round" stroke-linecap="round"/><g clip-path="url(#c)"><circle cx="80" cy="80" r="76" fill="#e4b4e8" opacity=".27"/><path d="M-2 113 Q75 76 164 35 M-3 131 Q83 91 170 52" fill="none" stroke="#fff8e8" stroke-width="8" opacity=".27"/><circle cx="84" cy="22" r="17" fill="#3f3036" stroke="#1d3b3a" stroke-width="3" stroke-linejoin="round" stroke-linecap="round"/><path d="M49 60 Q48 23 80 24 Q115 24 111 64 L106 95 L54 95Z" fill="#3f3036" stroke="#1d3b3a" stroke-width="2.5" stroke-linejoin="round" stroke-linecap="round"/><path d="M13 161 Q20 111 61 106 L80 119 L99 106 Q141 111 148 161Z" fill="#8b62a4" stroke="#1d3b3a" stroke-width="3" stroke-linejoin="round" stroke-linecap="round"/><path d="M88 118 Q126 114 138 153 L147 162 L81 162Z" fill="#67447d" opacity=".55"/><path d="M68 99 L68 113 Q80 126 92 113 L92 99" fill="#f0bd91" stroke="#1d3b3a" stroke-width="2.5" stroke-linejoin="round" stroke-linecap="round"/><path d="M49 59 Q49 32 80 29 Q111 32 111 59 L109 81 Q106 106 80 110 Q54 106 51 81Z" fill="#f0bd91" stroke="#1d3b3a" stroke-width="3" stroke-linejoin="round" stroke-linecap="round"/><path d="M56 84 Q62 99 80 102 Q98 99 104 84" fill="none" stroke="#b77e65" stroke-width="2" opacity=".55"/><path d="M50 59 Q47 29 77 28 Q107 28 110 58 Q93 49 85 39 Q72 56 50 59Z" fill="#3f3036" stroke="#1d3b3a" stroke-width="2.5" stroke-linejoin="round" stroke-linecap="round"/><path d="M79 32 Q92 33 100 44" fill="none" stroke="#66505d" stroke-width="2"/><path d="M60 65 q6 -5 12 -3 M89 62 q6 -2 12 3" fill="none" stroke="#1d3b3a" stroke-width="2.1" stroke-linejoin="round" stroke-linecap="round"/><path d="M62 71 q5 -3 10 0 M89 71 q5 -3 10 0" stroke="#1d3b3a" stroke-width="2" stroke-linejoin="round" stroke-linecap="round"/><circle cx="67" cy="72" r="2.7" fill="#1d3b3a"/><circle cx="94" cy="72" r="2.7" fill="#1d3b3a"/><circle cx="68" cy="71" r=".8" fill="#fff8e8"/><circle cx="95" cy="71" r=".8" fill="#fff8e8"/><path d="M80 73 l-3 11 q3 2 7 0" fill="none" stroke="#1d3b3a" stroke-width="1.6" stroke-linejoin="round" stroke-linecap="round"/><path d="M74 90 Q80 87 87 90" fill="none" stroke="#1d3b3a" stroke-width="1.8" stroke-linejoin="round" stroke-linecap="round"/><circle cx="59" cy="83" r="5" fill="#d98977" opacity=".23"/><circle cx="103" cy="83" r="5" fill="#d98977" opacity=".23"/><path d="M59 111 Q80 130 101 111" fill="none" stroke="#e4b4e8" stroke-width="5"/><circle cx="80" cy="137" r="4" fill="#e4b4e8" stroke="#1d3b3a" stroke-width="1.5" stroke-linejoin="round" stroke-linecap="round"/><g transform="rotate(-8 126 134)"><rect x="113" y="112" width="31" height="47" rx="3" fill="#e8d6ae" stroke="#1d3b3a" stroke-width="2" stroke-linejoin="round" stroke-linecap="round"/><path d="M118 123 h20 M118 130 h17 M118 137 h19" stroke="#1d3b3a" stroke-width="1.4" stroke-linejoin="round" stroke-linecap="round"/></g></g><circle cx="80" cy="80" r="76" fill="none" stroke="#1d3b3a" stroke-width="4" stroke-linejoin="round" stroke-linecap="round"/></svg>
